<svg width="167" height="56" viewBox="0 0 167 56" fill="none" xmlns="http://www.w3.org/2000/svg">
<rect x="0.679793" y="1.28721" width="165.316" height="53.4252" rx="7.56017" fill="black"/>
<path d="M24.5638 27.2765L11.2109 41.4483C11.2122 41.4508 11.2122 41.4546 11.2134 41.4571C11.6235 42.9959 13.0282 44.1284 14.6962 44.1284C15.3634 44.1284 15.9892 43.9478 16.526 43.6318L16.5686 43.6067L31.5983 34.9343L24.5638 27.2765Z" fill="#EA4335"/>
<path d="M38.0726 24.8626L38.0601 24.8538L31.5711 21.0927L24.2607 27.5979L31.5975 34.9321L38.0513 31.2086C39.1825 30.5966 39.9513 29.4039 39.9513 28.0293C39.9513 26.6623 39.1938 25.4759 38.0726 24.8626Z" fill="#FBBC04"/>
<path d="M11.2108 14.5502C11.1305 14.8462 11.0879 15.1572 11.0879 15.4782V40.5209C11.0879 40.842 11.1305 41.153 11.2121 41.4478L25.0227 27.6384L11.2108 14.5502Z" fill="#4285F4"/>
<path d="M24.6619 27.9995L31.5722 21.0904L16.5601 12.3867C16.0146 12.0594 15.3775 11.8713 14.6965 11.8713C13.0285 11.8713 11.6213 13.0063 11.2112 14.5463C11.2112 14.5476 11.21 14.5488 11.21 14.5501L24.6619 27.9995Z" fill="#34A853"/>
<path d="M54.0899 13.6522V19.3672H54.8549V13.6522H56.6549V12.9232H52.2809V13.6522H54.0899ZM58.8838 12.9232L56.4358 19.3672H57.2728L57.9208 17.5942H60.7108L61.3588 19.3672H62.1958L59.7478 12.9232H58.8838ZM60.4498 16.8742H58.1818L59.2978 13.8592H59.3338L60.4498 16.8742ZM58.9468 12.0502L59.0818 12.5272C59.3608 12.4732 59.5948 12.3652 59.7838 12.1852C59.9638 12.0052 60.0628 11.7802 60.0628 11.4922C60.0628 11.2312 59.9818 11.0332 59.8198 10.8892C59.6578 10.7452 59.4238 10.6732 59.1358 10.6732C58.8298 10.6732 58.5688 10.7272 58.3348 10.8352L58.5688 11.3032C58.7308 11.2312 58.9018 11.1952 59.0638 11.1952C59.1898 11.1952 59.2888 11.2312 59.3608 11.2852C59.4328 11.3392 59.4688 11.4202 59.4688 11.5282C59.4688 11.7622 59.2888 11.9422 58.9468 12.0502ZM63.0501 12.9232V19.3672H63.8151V12.9232H63.0501ZM67.3479 12.9232V19.3672H68.1039V15.2722L68.0679 14.0482H68.1039L70.2099 19.3672H70.8399L72.9459 14.0482H72.9819L72.9459 15.2722V19.3672H73.7019V12.9232H72.5949L70.5429 18.2062H70.5069L68.4549 12.9232H67.3479ZM75.1438 12.9232V19.3672H75.9088V12.9232H75.1438ZM77.3499 12.9232V19.3672H81.0759V18.6382H78.1149V16.5052H80.7879V15.7852H78.1149V13.6522H81.0759V12.9232H77.3499ZM77.9259 11.1592H78.4749C78.5109 10.9702 78.6099 10.8712 78.7719 10.8712C78.8529 10.8712 78.9699 10.9162 79.1139 10.9882C79.2129 11.0422 79.3119 11.0872 79.4019 11.1142C79.4919 11.1502 79.5909 11.1592 79.7079 11.1592C79.9239 11.1592 80.1129 11.0962 80.2659 10.9522C80.4189 10.8082 80.4999 10.6192 80.4999 10.3672H79.9509C79.9149 10.5652 79.8159 10.6552 79.6539 10.6552C79.5999 10.6552 79.5369 10.6462 79.4739 10.6192C79.4109 10.6012 79.3479 10.5742 79.2939 10.5382C79.1859 10.4842 79.0959 10.4482 79.0059 10.4122C78.9159 10.3852 78.8259 10.3672 78.7179 10.3672C78.4929 10.3672 78.3039 10.4392 78.1509 10.5832C77.9979 10.7272 77.9259 10.9162 77.9259 11.1592ZM77.9529 12.5002V12.5452H78.6909L79.1679 12.0322H79.2399L79.7349 12.5452H80.4729V12.5002L79.5459 11.4562H78.8709L77.9529 12.5002ZM82.3069 12.9232V19.3672H83.0719V15.2362L83.0359 13.9942H83.0719L86.4469 19.3672H87.2389V12.9232H86.4739V16.8112L86.5099 18.0532H86.4739L83.2429 12.9232H82.3069ZM90.7708 12.9232V19.3672H91.5358V16.7392H92.9398C93.2998 16.7392 93.6328 16.6582 93.9388 16.4962C94.2448 16.3342 94.4878 16.1092 94.6678 15.8212C94.8478 15.5332 94.9468 15.2002 94.9468 14.8312C94.9468 14.4712 94.8478 14.1382 94.6678 13.8502C94.4878 13.5622 94.2448 13.3282 93.9388 13.1662C93.6328 13.0042 93.2998 12.9232 92.9398 12.9232H90.7708ZM92.9578 16.0102H91.5358V13.6522H92.9578C93.1918 13.6522 93.4078 13.7152 93.5878 13.8232C93.7678 13.9402 93.9118 14.0842 94.0198 14.2642C94.1188 14.4442 94.1728 14.6332 94.1728 14.8312C94.1728 15.0292 94.1188 15.2182 94.0198 15.3982C93.9118 15.5782 93.7678 15.7312 93.5878 15.8392C93.4078 15.9562 93.1918 16.0102 92.9578 16.0102ZM95.9563 12.9232V19.3672H96.7213V16.4332H100.033V19.3672H100.798V12.9232H100.033V15.7042H96.7213V12.9232H95.9563ZM102.241 12.9232V19.3672H103.006V12.9232H102.241ZM102.754 11.2672L102.286 12.4102H102.952L103.591 11.2672H102.754Z" fill="white"/>
<path d="M133.204 39.8H135.416V24.9808H133.204V39.8ZM153.128 30.3189L150.592 36.7439H150.516L147.885 30.3189H145.502L149.448 39.2985L147.199 44.294H149.505L155.587 30.3189H153.128ZM140.583 38.1167C139.858 38.1167 138.848 37.7551 138.848 36.8577C138.848 35.715 140.106 35.2764 141.193 35.2764C142.165 35.2764 142.624 35.4862 143.214 35.7719C143.042 37.1446 141.86 38.1167 140.583 38.1167ZM140.85 29.9952C139.249 29.9952 137.589 30.7006 136.904 32.2642L138.867 33.0833C139.287 32.2642 140.068 31.9963 140.888 31.9963C142.032 31.9963 143.195 32.6826 143.214 33.9036V34.0554C142.813 33.8266 141.956 33.484 140.907 33.484C138.791 33.484 136.636 34.6469 136.636 36.8198C136.636 38.803 138.371 40.0809 140.316 40.0809C141.803 40.0809 142.624 39.4135 143.138 38.6311H143.214V39.7751H145.349V34.0933C145.349 31.4628 143.386 29.9952 140.85 29.9952ZM127.18 32.1231H124.034V27.0435H127.18C128.833 27.0435 129.772 28.4127 129.772 29.5827C129.772 30.7314 128.833 32.1231 127.18 32.1231ZM127.123 24.9808H121.823V39.8H124.034V34.1858H127.123C129.574 34.1858 131.984 32.41 131.984 29.5827C131.984 26.7554 129.574 24.9808 127.123 24.9808ZM98.2206 38.119C96.6926 38.119 95.4135 36.84 95.4135 35.0831C95.4135 33.3073 96.6926 32.0081 98.2206 32.0081C99.7297 32.0081 100.913 33.3073 100.913 35.0831C100.913 36.84 99.7297 38.119 98.2206 38.119ZM100.761 31.1487H100.684C100.187 30.5571 99.233 30.0225 98.0298 30.0225C95.5083 30.0225 93.1979 32.2369 93.1979 35.0831C93.1979 37.9092 95.5083 40.1058 98.0298 40.1058C99.233 40.1058 100.187 39.5712 100.684 38.9595H100.761V39.6862C100.761 41.6149 99.7297 42.6462 98.0677 42.6462C96.7115 42.6462 95.8711 41.6718 95.5273 40.8503L93.5986 41.6528C94.1522 42.99 95.6233 44.6318 98.0677 44.6318C100.665 44.6318 102.862 43.1038 102.862 39.3803V30.3272H100.761V31.1487ZM104.39 39.8H106.605V24.9796H104.39V39.8ZM109.87 34.9112C109.813 32.9636 111.379 31.9702 112.505 31.9702C113.385 31.9702 114.129 32.4088 114.377 33.0394L109.87 34.9112ZM116.745 33.2303C116.326 32.1041 115.046 30.0225 112.429 30.0225C109.832 30.0225 107.674 32.065 107.674 35.0642C107.674 37.8902 109.813 40.1058 112.677 40.1058C114.989 40.1058 116.326 38.6928 116.879 37.8713L115.161 36.725C114.588 37.5654 113.804 38.119 112.677 38.119C111.551 38.119 110.748 37.6034 110.233 36.5922L116.974 33.8029L116.745 33.2303ZM63.0356 31.5695V33.708H68.1532C68.0002 34.9112 67.5996 35.7897 66.9891 36.4002C66.2434 37.1458 65.0781 37.9673 63.0356 37.9673C59.8835 37.9673 57.4202 35.4269 57.4202 32.276C57.4202 29.1239 59.8835 26.5847 63.0356 26.5847C64.7355 26.5847 65.9767 27.2533 66.893 28.1128L68.4021 26.6037C67.1218 25.3815 65.4231 24.445 63.0356 24.445C58.7194 24.445 55.0908 27.9598 55.0908 32.276C55.0908 36.5922 58.7194 40.1058 63.0356 40.1058C65.365 40.1058 67.1218 39.3412 68.4969 37.9092C69.9112 36.4962 70.3498 34.5106 70.3498 32.9055C70.3498 32.4088 70.3118 31.9512 70.2348 31.5695H63.0356ZM76.1691 38.119C74.6411 38.119 73.3229 36.8589 73.3229 35.0642C73.3229 33.2493 74.6411 32.0081 76.1691 32.0081C77.6959 32.0081 79.0141 33.2493 79.0141 35.0642C79.0141 36.8589 77.6959 38.119 76.1691 38.119ZM76.1691 30.0225C73.3798 30.0225 71.1073 32.1421 71.1073 35.0642C71.1073 37.9673 73.3798 40.1058 76.1691 40.1058C78.9572 40.1058 81.2297 37.9673 81.2297 35.0642C81.2297 32.1421 78.9572 30.0225 76.1691 30.0225ZM87.2091 38.119C85.681 38.119 84.3628 36.8589 84.3628 35.0642C84.3628 33.2493 85.681 32.0081 87.2091 32.0081C88.7371 32.0081 90.0541 33.2493 90.0541 35.0642C90.0541 36.8589 88.7371 38.119 87.2091 38.119ZM87.2091 30.0225C84.4209 30.0225 82.1484 32.1421 82.1484 35.0642C82.1484 37.9673 84.4209 40.1058 87.2091 40.1058C89.9972 40.1058 92.2697 37.9673 92.2697 35.0642C92.2697 32.1421 89.9972 30.0225 87.2091 30.0225Z" fill="white"/>
<rect x="0.679793" y="1.28721" width="165.316" height="53.4252" rx="7.56017" stroke="white" stroke-width="1.00802"/>
</svg>
